#!OML:ASF F:\VICON\USERDATA\INSTALL\Justin_Nancy\Justin_Nancy.ASF
:FULLY-SPECIFIED
:DEGREES
118
root 0.510373 18.3455 8.81066 4.51892 41.8227 -6.28362
lowerback 7.48223 2.84569 6.39373
upperback -1.01717 4.53845 2.51065
thorax -4.97531 2.10692 -1.47814
lowerneck -22.3272 -5.79038 -9.46589
upperneck 15.1179 -6.04148 5.63629
head 8.84637 -2.79239 2.6038
rclavicle 8.04084e-014 -1.43125e-014
rhumerus -32.2491 10.7874 -83.6979
rradius 116.621
rwrist -11.3891
rhand -14.8821 24.6076
rfingers 7.12502
rthumb 11.2785 -5.06914
lclavicle 8.04084e-014 -1.43125e-014
lhumerus -57.1653 -5.14328 93.0989
lradius 101.585
lwrist 19.0852
lhand -12.9093 6.41561
lfingers 7.12502
lthumb 13.1806 35.979
rfemur 10.0544 5.6276 28.3611
rtibia 23.8219
rfoot 24.9606 3.89167
rtoes -6.92478
lfemur -35.1052 1.21696 -21.7102
ltibia 33.3136
lfoot -2.56904 -7.15145
ltoes -1.59776
119
root 0.717734 18.3651 9.12696 4.29491 41.8375 -6.37842
lowerback 7.39297 2.91452 6.11581
upperback -0.826492 4.59056 2.60784
thorax -4.74935 2.15249 -1.21846
lowerneck -22.6087 -5.81248 -9.38137
upperneck 15.1198 -6.09254 5.74018
head 8.89951 -2.7948 2.61465
rclavicle -7.78242e-014 -8.74653e-015
rhumerus -32.7895 13.1367 -84.6887
rradius 117.279
rwrist -15.1524
rhand -16.588 20.6675
rfingers 7.12502
rthumb 9.63283 -9.09223
lclavicle -7.78242e-014 -8.74653e-015
lhumerus -56.9887 -5.2939 92.9525
lradius 101.874
lwrist 18.114
lhand -12.6811 6.3015
lfingers 7.12502
lthumb 13.4006 35.8505
rfemur 10.4002 6.09556 28.8234
rtibia 25.2563
rfoot 24.0191 1.51995
rtoes -1.53984
lfemur -34.3801 1.66916 -21.6052
ltibia 30.7454
lfoot -1.96694 -7.16567
ltoes 0.760123
120
root 0.933217 18.3717 9.42832 4.28838 41.9391 -6.41467
lowerback 7.15777 2.95484 5.89421
upperback -0.728736 4.6064 2.73765
thorax -4.54046 2.17655 -0.94642
lowerneck -22.6823 -5.89205 -9.8481
upperneck 15.044 -6.13836 6.20698
head 8.92174 -2.79109 2.84319
rclavicle -3.54831e-014 -1.27222e-014
rhumerus -32.5942 13.0025 -83.8227
rradius 116.304
rwrist -11.385
rhand -14.6386 25.1935
rfingers 7.12502
rthumb 11.5133 -4.47026
lclavicle -3.54831e-014 -1.27222e-014
lhumerus -56.8295 -5.4917 93.0225
lradius 102.249
lwrist 17.6537
lhand -12.3879 6.13447
lfingers 7.12502
lthumb 13.6832 35.6647
rfemur 10.3229 6.13247 29.0126
rtibia 26.9923
rfoot 22.5909 -0.550185
rtoes 2.37365
lfemur -34.0063 1.93158 -21.6011
ltibia 28.7299
lfoot -1.2917 -6.70383
ltoes 2.60898
121
root 1.14144 18.3618 9.72829 4.16163 42.0593 -6.54394
lowerback 6.89588 2.98644 5.51833
upperback -0.580063 4.60614 3.08176
thorax -4.29468 2.20101 -0.363734
lowerneck -22.411 -5.8827 -10.0593
upperneck 14.6801 -6.07732 6.2373
head 8.75327 -2.77481 2.89907
rclavicle 1.23246e-014 1.43125e-014
rhumerus -32.7228 14.3387 -83.6658
rradius 115.868
rwrist -11.6463
rhand -15.0498 25.9338
rfingers 7.12502
rthumb 11.1167 -3.75179
lclavicle 1.23246e-014 1.43125e-014
lhumerus -56.5607 -5.64365 93.3854
lradius 102.72
lwrist 17.5509
lhand -11.7885 5.68392
lfingers 7.12502
lthumb 14.2608 35.1743
rfemur 9.98216 5.90172 29.2011
rtibia 29.1717
rfoot 21.3826 -1.12654
rtoes 1.3578
lfemur -33.79 2.37094 -21.6838
ltibia 27.2056
lfoot -0.644768 -5.95673
ltoes -0.689606
122
root 1.34428 18.3393 10.0272 3.90517 42.2692 -6.6207
lowerback 6.8564 2.93139 5.13678
upperback -0.376556 4.50392 3.39512
thorax -4.11859 2.17147 0.187954
lowerneck -22.1365 -5.73538 -9.71286
upperneck 14.2651 -5.94067 5.95709
head 8.53222 -2.7234 2.77004
rclavicle 4.29375e-014 2.38542e-014
rhumerus -32.9035 15.4904 -83.6896
rradius 115.487
rwrist -11.114
rhand -14.7357 26.2504
rfingers 7.12502
rthumb 11.4197 -3.41859
lclavicle 4.29375e-014 2.38542e-014
lhumerus -56.2788 -5.92395 93.7294
lradius 103.332
lwrist 17.8301
lhand -11.698 5.45921
lfingers 7.12502
lthumb 14.3481 34.9434
rfemur 9.58685 5.61107 29.3832
rtibia 31.7705
rfoot 20.0339 -1.8245
rtoes 0.1019
lfemur -33.4407 2.64672 -21.8076
ltibia 26.1222
lfoot -0.212205 -5.38177
ltoes -4.15751
123
root 1.54482 18.3118 10.3209 3.79464 42.5034 -6.55467
lowerback 6.88213 2.78387 4.87199
upperback -0.192814 4.28183 3.48754
thorax -3.97407 2.07373 0.454338
lowerneck -22.0981 -5.58674 -9.5312
upperneck 13.9941 -5.81179 6.07563
head 8.42104 -2.63918 2.8009
rclavicle -2.34566e-014 -7.95139e-016
rhumerus -32.9367 16.3685 -83.8608
rradius 114.958
rwrist -10.2781
rhand -14.0171 26.4171
rfingers 7.12502
rthumb 12.1126 -3.21232
lclavicle -2.34566e-014 -7.95139e-016
lhumerus -55.8595 -6.27208 93.7635
lradius 103.857
lwrist 18.2435
lhand -12.1724 5.85373
lfingers 7.12502
lthumb 13.8909 35.3698
rfemur 8.86682 5.45675 29.4332
rtibia 34.7244
rfoot 18.4846 -3.17134
rtoes 1.93663
lfemur -33.0396 2.85877 -21.9334
ltibia 25.3963
lfoot 0.122187 -5.16606
ltoes -4.96009
124
root 1.74037 18.2762 10.6158 3.62027 42.7085 -6.32417
lowerback 7.16309 2.64611 4.56945
upperback -0.0214281 4.07871 3.39625
thorax -3.97167 1.97902 0.536556
lowerneck -22.0378 -5.52737 -9.35492
upperneck 13.7508 -5.82795 6.30893
head 8.33214 -2.61243 2.85089
rclavicle -4.17448e-014 3.57812e-014
rhumerus -33.0498 17.0665 -84.2484
rradius 114.285
rwrist -9.88503
rhand -13.5056 26.6095
rfingers 7.12502
rthumb 12.6058 -2.99017
lclavicle -4.17448e-014 3.57812e-014
lhumerus -55.2752 -6.74887 93.4742
lradius 104.212
lwrist 18.3031
lhand -12.1892 6.21801
lfingers 7.12502
lthumb 13.8747 35.7352
rfemur 8.13808 5.38806 29.3632
rtibia 37.9355
rfoot 17.6768 -4.18194
rtoes 3.8536
lfemur -32.3398 3.1824 -22.1266
ltibia 24.9595
lfoot 0.658034 -5.15876
ltoes -3.75922
125
root 1.9376 18.2246 10.9089 3.57304 43.0646 -5.95141
lowerback 7.52853 2.48107 4.2511
upperback -0.00400214 3.84663 3.23066
thorax -4.17214 1.86376 0.547392
lowerneck -21.7661 -5.47531 -9.12133
upperneck 13.6205 -5.87829 6.45384
head 8.24473 -2.61303 2.85921
rclavicle -9.48203e-014 -7.15625e-015
rhumerus -33.5454 17.6993 -84.8301
rradius 113.665
rwrist -9.73264
rhand -13.041 26.5594
rfingers 7.12502
rthumb 13.0536 -3.01217
lclavicle -9.48203e-014 -7.15625e-015
lhumerus -54.8468 -7.30387 93.1051
lradius 104.612
lwrist 18.3061
lhand -12.3474 6.32119
lfingers 7.12502
lthumb 13.7222 35.8487
rfemur 7.20325 4.84224 29.0745
rtibia 41.3711
rfoot 17.4268 -4.36792
rtoes 3.37873
lfemur -31.6419 3.43502 -22.4979
ltibia 24.7082
lfoot 1.43723 -5.40122
ltoes -3.37237
126
root 2.12772 18.1554 11.2106 3.58559 43.6278 -5.33427
lowerback 7.97978 2.26015 3.71505
upperback 0.0370713 3.52078 3.06072
thorax -4.40905 1.70684 0.684769
lowerneck -21.5827 -5.39271 -9.12157
upperneck 13.6969 -5.84545 6.75562
head 8.24792 -2.57007 2.96994
rclavicle 6.0033e-014 -1.59028e-015
rhumerus -34.1793 18.3128 -85.4308
rradius 113.112
rwrist -9.56358
rhand -13.1156 26.307
rfingers 7.12502
rthumb 12.9818 -3.26914
lclavicle 6.0033e-014 -1.59028e-015
lhumerus -54.3705 -7.99753 92.8226
lradius 105.125
lwrist 18.9262
lhand -12.525 6.8665
lfingers 7.12502
lthumb 13.5511 36.4055
rfemur 6.2226 4.05004 28.6434
rtibia 44.9297
rfoot 17.4038 -4.73377
rtoes 4.3679
lfemur -30.8381 3.73452 -23.0826
ltibia 24.635
lfoot 2.34847 -6.74364
ltoes -5.94906
127
root 2.31691 18.0731 11.5114 3.8223 44.2472 -4.29705
lowerback 8.44884 2.07031 2.93118
upperback 0.181246 3.19843 2.82274
thorax -4.55349 1.55895 0.895778
lowerneck -21.3814 -5.34173 -9.16271
upperneck 13.579 -5.83291 7.04588
head 8.1849 -2.54038 3.07968
rclavicle 8.88567e-014 -3.97569e-015
rhumerus -34.7366 18.7564 -85.8882
rradius 112.485
rwrist -9.48891
rhand -14.204 25.7877
rfingers 7.12502
rthumb 11.9324 -3.85221
lclavicle 8.88567e-014 -3.97569e-015
lhumerus -53.6027 -8.87986 92.7787
lradius 105.617
lwrist 19.7266
lhand -12.8991 7.37278
lfingers 7.12502
lthumb 13.1905 36.9355
rfemur 5.18994 3.01837 27.7569
rtibia 48.5329
rfoot 17.7217 -4.43268
rtoes 4.75579
lfemur -29.9391 4.19733 -24.0052
ltibia 24.8277
lfoot 3.26977 -8.57758
ltoes -4.17859
128
root 2.50892 17.9756 11.8115 4.02853 44.7565 -3.33628
lowerback 8.86415 1.87991 2.21202
upperback 0.34967 2.87278 2.6029
thorax -4.63444 1.40968 1.09733
lowerneck -21.2392 -5.33003 -9.2448
upperneck 13.413 -5.84516 7.29562
head 8.11758 -2.52786 3.17745
rclavicle 4.40308e-014 -3.10104e-014
rhumerus -35.1868 19.2006 -86.255
rradius 111.787
rwrist -9.3891
rhand -15.4723 25.2621
rfingers 7.12502
rthumb 10.7092 -4.44494
lclavicle 4.40308e-014 -3.10104e-014
lhumerus -52.7132 -9.63551 92.6223
lradius 106.104
lwrist 20.2094
lhand -12.9762 6.88717
lfingers 7.12502
lthumb 13.1162 36.4547
rfemur 4.16526 1.9992 26.8342
rtibia 52.0953
rfoot 18.0485 -4.20626
rtoes 6.85919
lfemur -29.1029 4.51986 -24.7366
ltibia 25.5164
lfoot 3.69177 -10.393
ltoes 3.44423
129
root 2.69842 17.8612 12.1146 4.17606 45.1823 -2.54495
lowerback 9.12921 1.75486 1.46045
upperback 0.517273 2.62134 2.39277
thorax -4.6295 1.29855 1.32615
lowerneck -21.0422 -5.25065 -8.8352
upperneck 13.2876 -5.87119 7.30117
head 8.03266 -2.52174 3.11152
rclavicle 3.37934e-015 -1.19271e-014
rhumerus -35.7621 19.5851 -86.8071
rradius 111.046
rwrist -9.03889
rhand -16.5026 24.7225
rfingers 7.12502
rthumb 9.71531 -5.03346
lclavicle 3.37934e-015 -1.19271e-014
lhumerus -51.7704 -10.5441 92.187
lradius 106.698
lwrist 20.6537
lhand -12.6533 6.27866
lfingers 7.12502
lthumb 13.4274 35.8259
rfemur 3.11079 1.16559 26.077
rtibia 55.6239
rfoot 18.1538 -4.44272
rtoes 10.0686
lfemur -28.504 4.70839 -25.2672
ltibia 26.9299
lfoot 2.44919 -12.5238
ltoes 6.76014
130
root 2.88054 17.7353 12.4152 4.28065 45.613 -1.89177
lowerback 9.37763 1.71359 0.764173
upperback 0.659458 2.48679 2.21865
thorax -4.63947 1.24398 1.54818
lowerneck -20.7247 -5.20519 -8.08042
upperneck 13.1831 -6.02321 7.15003
head 7.92877 -2.57555 2.92106
rclavicle 2.98177e-015 7.95139e-016
rhumerus -36.479 19.4925 -87.332
rradius 110.366
rwrist -9.10068
rhand -15.7534 24.6682
rfingers 7.12502
rthumb 10.438 -5.05273
lclavicle 2.98177e-015 7.95139e-016
lhumerus -50.8014 -11.8486 91.7456
lradius 107.308
lwrist 20.6716
lhand -14.1026 7.41353
lfingers 7.12502
lthumb 12.0302 37.0478
rfemur 1.8898 0.321865 25.4154
rtibia 59.1508
rfoot 18.1917 -5.13097
rtoes 13.9274
lfemur -28.1614 4.85668 -25.6632
ltibia 29.1516
lfoot -0.471038 -13.5011
ltoes 6.62688
131
root 3.06042 17.6092 12.7036 4.03991 45.7882 -1.56832
lowerback 9.89446 1.64574 0.298721
upperback 0.834097 2.35215 2.19833
thorax -4.76067 1.18648 1.79527
lowerneck -20.68 -5.31478 -8.5684
upperneck 13.123 -6.09158 7.47319
head 7.93387 -2.60261 3.09995
rclavicle -2.41523e-014 -2.14687e-014
rhumerus -37.0283 19.4941 -87.5743
rradius 109.795
rwrist -9.97898
rhand -14.2556 25.2257
rfingers 7.12502
rthumb 11.8826 -4.41716
lclavicle -2.41523e-014 -2.14687e-014
lhumerus -49.654 -12.6773 91.4108
lradius 107.841
lwrist 20.4226
lhand -16.6159 8.91142
lfingers 7.12502
lthumb 9.60598 38.6724
rfemur 0.59102 -0.459457 24.8758
rtibia 62.7737
rfoot 18.1565 -5.62437
rtoes 16.3512
lfemur -27.6721 4.75032 -25.6142
ltibia 31.8008
lfoot -3.47001 -13.3998
ltoes 7.14831
132
root 3.24432 17.4858 12.9742 3.27407 45.5085 -2.09768
lowerback 10.4227 1.57354 0.438933
upperback 1.0643 2.28937 2.3852
thorax -4.8154 1.15525 1.90977
lowerneck -20.6764 -5.11807 -8.21273
upperneck 12.8951 -5.86918 7.23001
head 7.81899 -2.50362 2.99017
rclavicle 6.7885e-014 -4.29375e-014
rhumerus -37.5589 20.1089 -88.0272
rradius 109.281
rwrist -10.2658
rhand -15.1199 24.8696
rfingers 7.12502
rthumb 11.0491 -4.81962
lclavicle 6.7885e-014 -4.29375e-014
lhumerus -48.0162 -12.8148 90.9792
lradius 108.181
lwrist 20.5486
lhand -16.9276 9.08815
lfingers 7.12502
lthumb 9.30515 38.8628
rfemur -0.974129 -1.01638 24.8086
rtibia 66.4638
rfoot 17.9059 -5.72582
rtoes 15.17
lfemur -27.3784 4.41644 -24.8354
ltibia 34.496
lfoot -6.20043 -13.7152
ltoes 9.75671
